<mxfile host="65bd71144e">
    <diagram id="tMVVqss-iacEgyTa0Xue" name="Page-1">
        <mxGraphModel dx="1458" dy="427" grid="1" gridSize="10" guides="1" tooltips="1" connect="1" arrows="1" fold="1" page="1" pageScale="1" pageWidth="850" pageHeight="1100" background="#ffffff" math="0" shadow="0">
            <root>
                <mxCell id="0"/>
                <mxCell id="1" parent="0"/>
                <mxCell id="cgCByH6a42XLN9KL-xfX-7" value="Entity" style="whiteSpace=wrap;html=1;align=center;fillColor=#f5f5f5;fontColor=#333333;strokeColor=#666666;" vertex="1" parent="1">
                    <mxGeometry x="-730" y="50" width="100" height="40" as="geometry"/>
                </mxCell>
                <mxCell id="cgCByH6a42XLN9KL-xfX-8" value="Entity" style="shape=ext;margin=3;double=1;whiteSpace=wrap;html=1;align=center;fillColor=#f5f5f5;fontColor=#333333;strokeColor=#666666;" vertex="1" parent="1">
                    <mxGeometry x="-730" y="110" width="100" height="40" as="geometry"/>
                </mxCell>
                <mxCell id="cgCByH6a42XLN9KL-xfX-9" value="Attribute" style="ellipse;whiteSpace=wrap;html=1;align=center;fillColor=#f5f5f5;fontColor=#333333;strokeColor=#666666;" vertex="1" parent="1">
                    <mxGeometry x="-590" y="50" width="100" height="40" as="geometry"/>
                </mxCell>
                <mxCell id="cgCByH6a42XLN9KL-xfX-10" value="&lt;span style=&quot;border-bottom: 1px dotted&quot;&gt;Attribute&lt;/span&gt;" style="ellipse;whiteSpace=wrap;html=1;align=center;fillColor=#f5f5f5;fontColor=#333333;strokeColor=#666666;" vertex="1" parent="1">
                    <mxGeometry x="-590" y="110" width="100" height="40" as="geometry"/>
                </mxCell>
                <mxCell id="cgCByH6a42XLN9KL-xfX-11" value="Relationship" style="shape=rhombus;perimeter=rhombusPerimeter;whiteSpace=wrap;html=1;align=center;fillColor=#f5f5f5;fontColor=#333333;strokeColor=#666666;" vertex="1" parent="1">
                    <mxGeometry x="-453" y="120" width="120" height="60" as="geometry"/>
                </mxCell>
                <mxCell id="cgCByH6a42XLN9KL-xfX-12" value="" style="endArrow=none;html=1;rounded=0;fillColor=#f5f5f5;strokeColor=#666666;" edge="1" parent="1">
                    <mxGeometry relative="1" as="geometry">
                        <mxPoint x="-290" y="100" as="sourcePoint"/>
                        <mxPoint x="-290" y="60" as="targetPoint"/>
                    </mxGeometry>
                </mxCell>
                <mxCell id="cgCByH6a42XLN9KL-xfX-13" value="" style="shape=link;html=1;rounded=0;fillColor=#f5f5f5;strokeColor=#666666;strokeWidth=1;" edge="1" parent="1">
                    <mxGeometry width="100" relative="1" as="geometry">
                        <mxPoint x="-270" y="100" as="sourcePoint"/>
                        <mxPoint x="-270" y="60" as="targetPoint"/>
                    </mxGeometry>
                </mxCell>
                <mxCell id="cgCByH6a42XLN9KL-xfX-14" value="" style="triangle;whiteSpace=wrap;html=1;rotation=-90;fillColor=#f5f5f5;fontColor=#333333;strokeColor=#666666;" vertex="1" parent="1">
                    <mxGeometry x="-250" y="60" width="4" height="5.33" as="geometry"/>
                </mxCell>
                <mxCell id="cgCByH6a42XLN9KL-xfX-15" value="" style="triangle;whiteSpace=wrap;html=1;rotation=-90;fillColor=#f5f5f5;fontColor=#333333;strokeColor=#666666;" vertex="1" parent="1">
                    <mxGeometry x="-210" y="50" width="37.5" height="50" as="geometry"/>
                </mxCell>
                <mxCell id="cgCByH6a42XLN9KL-xfX-16" value="Relationship" style="shape=rhombus;double=1;perimeter=rhombusPerimeter;whiteSpace=wrap;html=1;align=center;fillColor=#f5f5f5;fontColor=#333333;strokeColor=#666666;" vertex="1" parent="1">
                    <mxGeometry x="-453" y="30" width="120" height="60" as="geometry"/>
                </mxCell>
            </root>
        </mxGraphModel>
    </diagram>
</mxfile>